<?xml version="1.0" standalone="no"?>
<!DOCTYPE svg PUBLIC "-//W3C//DTD SVG 20010904//EN"
 "http://www.w3.org/TR/2001/REC-SVG-20010904/DTD/svg10.dtd">
<svg version="1.0" xmlns="http://www.w3.org/2000/svg"
 width="1280.000000pt" height="1280.000000pt" viewBox="0 0 1280.000000 1280.000000"
 preserveAspectRatio="xMidYMid meet">

<g transform="translate(0.000000,1280.000000) scale(0.100000,-0.100000)"
fill="#000000" stroke="none">
<path d="M6345 10550 c-59 -99 -97 -152 -110 -155 -11 -3 -90 -16 -175 -30
-85 -15 -156 -28 -158 -29 -1 -2 51 -59 116 -128 l119 -124 -28 -160 c-16 -87
-28 -164 -27 -171 2 -7 66 17 165 62 l162 73 157 -75 c86 -41 158 -72 161 -70
2 3 -3 66 -11 141 -25 215 -35 187 109 322 69 65 122 121 118 124 -5 4 -80 19
-168 35 -88 15 -166 32 -173 38 -7 5 -42 67 -78 138 -37 71 -71 135 -78 144
-9 13 -27 -11 -101 -135z"/>
<path d="M5163 10029 l-30 -82 -78 -29 c-44 -16 -81 -31 -83 -33 -2 -2 26 -25
62 -52 l65 -48 1 -87 c0 -49 3 -88 6 -88 3 0 37 22 76 49 l69 49 64 -18 c34
-10 73 -21 85 -25 19 -6 21 -4 15 15 -4 12 -15 51 -25 85 l-18 64 49 69 c27
39 49 73 49 76 0 3 -39 6 -87 6 l-88 0 -40 56 c-60 84 -59 84 -92 -7z"/>
<path d="M7593 10006 l-48 -65 -87 -1 c-49 0 -88 -3 -88 -6 0 -3 22 -37 49
-76 l49 -69 -18 -64 c-10 -34 -21 -73 -25 -85 -6 -19 -4 -21 15 -15 12 4 51
15 85 25 l64 18 69 -49 c39 -27 73 -49 76 -49 3 0 6 39 6 88 l1 87 65 48 c36
27 64 50 62 52 -2 2 -39 17 -82 33 l-79 29 -29 79 c-16 43 -31 80 -33 82 -2 2
-25 -26 -52 -62z"/>
<path d="M12605 9680 c-95 -40 -781 -306 -1435 -555 -1138 -434 -1500 -576
-1509 -594 -5 -9 -16 -86 -26 -171 -20 -183 -55 -380 -96 -542 -32 -131 -33
-138 -18 -138 31 0 604 211 909 335 574 232 1167 524 1470 722 300 197 503
394 608 593 40 74 113 265 127 328 7 33 3 36 -30 22z"/>
<path d="M185 9648 c14 -63 87 -254 127 -328 105 -199 308 -396 608 -593 303
-198 896 -490 1470 -722 305 -124 878 -335 909 -335 15 0 14 7 -18 138 -41
162 -76 359 -96 542 -10 85 -21 162 -26 171 -9 18 -367 159 -1509 594 -797
304 -1095 419 -1333 514 -70 28 -130 51 -133 51 -3 0 -2 -15 1 -32z"/>
<path d="M4354 9580 c-11 -32 -27 -55 -39 -60 -11 -4 -35 -14 -54 -22 l-35
-14 42 -29 c40 -29 42 -32 42 -87 0 -32 3 -58 6 -58 3 0 25 14 50 31 l45 30
51 -15 c29 -8 53 -14 55 -13 1 2 -5 26 -13 55 l-15 51 30 44 30 45 -59 6 c-33
4 -60 10 -60 14 0 4 -13 22 -29 41 l-28 34 -19 -53z"/>
<path d="M8435 9553 c-28 -38 -35 -42 -87 -48 l-58 -7 31 -44 30 -45 -15 -51
c-8 -29 -14 -53 -13 -55 2 -1 26 5 55 13 l51 15 45 -30 c25 -17 47 -31 50 -31
3 0 6 27 6 60 0 33 3 60 8 60 4 0 22 13 41 29 l34 28 -53 19 c-32 11 -55 27
-60 39 -4 11 -14 35 -22 54 l-14 35 -29 -41z"/>
<path d="M6120 9423 c-159 -6 -493 -35 -675 -59 -500 -65 -862 -145 -1372
-305 l-172 -54 -7 -51 c-3 -28 -1 -109 6 -180 44 -503 143 -961 326 -1516 l75
-227 92 -21 c90 -21 2125 -487 2692 -616 160 -37 296 -72 303 -79 11 -10 12
-17 1 -36 -28 -53 -301 -394 -444 -554 -241 -269 -503 -525 -539 -525 -20 0
-250 227 -707 697 l-274 283 -400 95 c-507 121 -475 114 -475 104 0 -37 761
-993 1036 -1300 235 -263 762 -739 819 -739 21 0 51 21 200 140 339 273 740
677 1044 1055 335 415 583 788 734 1103 27 57 47 105 45 108 -3 2 -321 81
-709 176 -568 138 -707 176 -721 192 -15 17 -19 19 -27 7 -10 -16 54 -30
-1320 305 -415 101 -756 184 -758 184 -21 0 -134 570 -158 802 l-7 67 38 10
c253 67 781 149 1099 171 199 13 943 13 1137 -1 298 -20 761 -94 1065 -169
196 -49 203 -53 203 -128 0 -116 -40 -308 -120 -572 -23 -77 -36 -138 -31
-143 5 -5 26 -13 48 -18 92 -20 527 -98 531 -95 9 10 87 244 127 385 90 312
96 359 102 696 2 165 1 318 -4 340 -11 52 -34 63 -313 148 -393 121 -678 184
-1135 251 -427 63 -896 87 -1355 69z"/>
<path d="M6193 8599 c-30 -14 -43 -28 -44 -43 -7 -112 8 -164 41 -146 20 11
77 3 86 -11 3 -5 -7 -9 -21 -9 -14 0 -36 -10 -49 -23 -13 -13 -44 -33 -70 -45
-25 -12 -46 -29 -46 -37 0 -27 -20 -15 -35 21 -23 55 -20 146 5 169 24 22 27
47 5 38 -10 -3 -15 -1 -13 7 4 18 -25 20 -47 4 -15 -12 -17 -18 -7 -39 7 -15
8 -25 2 -25 -17 0 -3 -250 15 -268 2 -3 11 1 19 7 9 8 16 8 20 2 9 -13 48 -10
64 6 7 7 20 13 29 13 34 0 249 -84 267 -104 10 -12 25 -21 32 -21 36 0 7 -24
-99 -79 -63 -34 -131 -75 -151 -92 -36 -31 -37 -33 -27 -71 l11 -39 167 -69
c100 -42 178 -69 194 -67 51 6 45 -58 -13 -140 -34 -48 66 -25 105 25 14 17
39 48 56 67 17 19 31 42 31 50 0 11 3 11 12 2 9 -9 8 -16 -5 -30 -24 -26 -22
-31 28 -89 43 -49 56 -71 35 -58 -13 8 -13 -1 1 -27 9 -17 13 -18 20 -7 6 11
16 5 41 -26 18 -22 45 -52 60 -66 15 -15 32 -37 37 -50 6 -13 10 -17 11 -9 1
35 15 41 54 25 21 -9 40 -14 43 -11 3 3 -6 8 -21 12 -14 3 -26 13 -26 21 0 10
-6 12 -20 8 -11 -3 -20 -3 -20 2 0 4 -14 24 -31 43 -28 32 -31 29 -13 -15 11
-26 -12 -16 -24 10 -14 30 -16 65 -3 65 27 0 74 -26 81 -45 5 -12 18 -25 30
-28 l22 -6 -23 25 c-21 23 -21 24 -3 25 13 0 7 6 -16 16 -19 8 -47 26 -62 41
-24 22 -28 23 -28 7 0 -17 -1 -17 -19 -1 -11 10 -23 31 -26 47 -6 26 -56 79
-74 79 -5 0 -6 11 -3 25 3 20 7 23 22 15 27 -14 34 -12 20 5 -22 26 -4 28 59
6 106 -36 126 -23 23 15 -51 19 -57 24 -60 52 -2 22 -16 41 -49 68 l-46 38 36
-54 c44 -65 45 -74 10 -65 -41 10 -46 16 -78 100 l-29 76 -50 -6 c-66 -9 -69
-12 -51 -38 24 -34 17 -45 -9 -13 -15 18 -26 24 -30 17 -8 -13 102 -157 116
-153 12 3 38 -17 38 -29 0 -18 -56 4 -137 54 -45 27 -89 47 -97 44 -9 -4 -18
4 -26 23 -8 20 -20 30 -38 32 -14 2 -28 9 -30 17 -4 11 3 13 31 8 35 -5 92 9
149 39 27 14 30 20 25 50 -3 19 -1 34 4 34 13 0 28 -41 21 -58 -3 -10 3 -11
24 -6 60 14 75 24 70 42 -14 49 -17 82 -8 82 6 0 81 -27 167 -60 86 -33 159
-60 162 -60 13 0 -83 64 -97 65 -9 0 -20 4 -25 7 -6 3 -69 27 -142 53 -123 44
-165 67 -150 82 4 3 64 -15 135 -41 140 -50 142 -50 142 -37 0 4 -58 29 -129
55 -72 26 -135 54 -141 61 -6 8 -17 12 -24 9 -6 -2 -27 11 -46 31 -19 19 -41
35 -49 35 -13 0 -14 2 -2 9 8 5 20 7 28 4 7 -3 13 2 13 11 0 22 4 21 114 -19
102 -37 116 -40 116 -27 0 5 -39 23 -87 41 -134 49 -133 48 -133 73 0 13 -4
28 -8 35 -11 18 -64 35 -89 28 -24 -6 -28 1 -15 22 5 9 19 9 51 2 37 -8 46 -7
61 8 9 10 32 27 52 37 l35 19 123 -43 c111 -39 124 -47 135 -74 30 -76 28 -74
34 -37 l6 34 33 -37 c17 -20 32 -32 32 -27 0 5 -4 13 -10 16 -5 3 -10 13 -10
22 0 13 3 13 15 3 13 -10 15 -9 15 12 0 30 -43 71 -92 89 -21 7 -38 19 -38 26
0 14 -2 15 -41 18 -14 1 -51 19 -83 39 -31 20 -61 34 -66 31 -4 -3 -10 1 -13
7 -3 10 -9 10 -26 0 -18 -11 -24 -10 -37 3 -22 22 -42 19 -99 -15 -36 -21 -63
-30 -96 -30 -42 0 -47 -3 -62 -35 -9 -19 -21 -35 -27 -35 -12 0 -13 20 -1 38
12 20 -13 83 -40 98 -32 18 -37 17 -86 -7z m347 -76 c-67 -70 -71 -73 -84 -66
-11 7 110 123 128 123 5 0 -14 -26 -44 -57z m-25 -63 c3 -5 1 -10 -4 -10 -6 0
-11 5 -11 10 0 6 2 10 4 10 3 0 8 -4 11 -10z m-202 -87 c7 -41 1 -55 -13 -33
-12 19 -13 70 -1 70 4 0 11 -17 14 -37z m23 -150 c56 -60 67 -81 37 -68 -10 5
-55 21 -100 38 -46 16 -83 33 -83 38 0 8 65 46 84 48 5 1 33 -25 62 -56z m-73
-310 c-1 -6 12 -15 30 -19 30 -7 27 -9 -28 -15 -33 -4 -63 -5 -68 -2 -4 2 1
15 10 29 18 24 60 30 56 7z"/>
<path d="M6033 8594 c-19 -20 -16 -29 12 -30 18 -1 23 2 17 10 -5 6 -11 16
-13 23 -3 8 -8 7 -16 -3z"/>
<path d="M6555 8430 c-10 -11 -16 -22 -14 -24 9 -7 120 -46 132 -45 7 0 -1 5
-18 11 -89 31 -97 36 -85 58 14 25 8 26 -15 0z"/>
<path d="M9340 8318 c-106 -304 -353 -904 -545 -1323 -500 -1096 -1038 -1834
-1720 -2362 -200 -154 -648 -463 -673 -463 -24 0 -458 299 -657 453 -492 381
-909 873 -1290 1522 -109 185 -314 586 -430 840 -192 419 -439 1019 -545 1323
-24 68 -46 120 -50 115 -15 -16 84 -622 151 -932 250 -1142 763 -2124 1489
-2852 333 -334 674 -583 1203 -878 l127 -71 33 16 c218 113 612 359 827 517
334 246 678 592 945 952 553 743 918 1626 1100 2657 45 257 93 593 85 601 -4
5 -26 -47 -50 -115z"/>
<path d="M7080 8290 c0 -6 7 -10 15 -10 8 0 15 2 15 4 0 2 -7 6 -15 10 -8 3
-15 1 -15 -4z"/>
<path d="M11505 8184 c-209 -82 -515 -198 -1178 -449 -610 -230 -849 -325
-868 -344 -9 -9 -37 -97 -64 -196 -59 -221 -117 -405 -189 -593 -29 -78 -50
-144 -46 -147 10 -6 310 96 535 182 864 332 1504 724 1781 1092 84 112 133
209 182 356 46 141 55 175 45 175 -5 -1 -93 -35 -198 -76z"/>
<path d="M1116 8223 c19 -80 91 -277 125 -343 222 -428 890 -871 1884 -1253
225 -86 525 -188 535 -182 4 3 -17 69 -46 147 -72 188 -130 372 -189 593 -27
99 -55 187 -64 196 -22 23 -335 145 -1291 504 -195 74 -489 186 -653 249 -164
64 -300 116 -303 116 -2 0 -1 -12 2 -27z"/>
<path d="M6565 8220 c20 -22 31 -20 22 5 -4 8 -14 15 -23 15 -16 0 -16 -2 1
-20z"/>
<path d="M6690 8189 c0 -5 5 -7 10 -4 6 3 10 8 10 11 0 2 -4 4 -10 4 -5 0 -10
-5 -10 -11z"/>
<path d="M6121 8187 c8 -9 141 -58 146 -54 2 2 -25 14 -59 27 -92 33 -93 34
-87 27z"/>
<path d="M6917 7893 c-4 -3 1 -12 11 -19 25 -20 34 -17 20 6 -13 21 -21 24
-31 13z"/>
<path d="M7380 7720 c-12 -8 -11 -10 7 -10 12 0 25 5 28 10 8 13 -15 13 -35 0z"/>
<path d="M6847 7650 c6 -23 19 -26 26 -6 3 8 -1 17 -9 20 -22 9 -23 8 -17 -14z"/>
<path d="M7159 7641 c15 -27 31 -35 43 -23 7 7 0 15 -22 27 -31 16 -31 16 -21
-4z"/>
<path d="M6910 7640 c8 -5 20 -10 25 -10 6 0 3 5 -5 10 -8 5 -19 10 -25 10 -5
0 -3 -5 5 -10z"/>
<path d="M7050 7470 c0 -5 5 -10 10 -10 6 0 10 5 10 10 0 6 -4 10 -10 10 -5 0
-10 -4 -10 -10z"/>
<path d="M7136 7466 c3 -8 12 -17 20 -20 11 -4 12 -2 1 14 -14 23 -29 27 -21
6z"/>
<path d="M6876 7365 c14 -27 33 -57 41 -65 26 -28 -9 44 -40 81 l-29 34 28
-50z"/>
<path d="M7076 7335 c-3 -9 0 -15 9 -15 16 0 20 16 6 24 -5 3 -11 -1 -15 -9z"/>
<path d="M6999 7311 c16 -28 14 -44 -4 -37 -13 5 -15 -3 -13 -52 3 -49 7 -57
25 -60 16 -2 21 3 25 27 2 17 1 34 -4 39 -5 5 -4 21 2 36 11 31 8 41 -21 57
-19 9 -19 9 -10 -10z"/>
<path d="M6950 7236 c0 -20 2 -36 4 -36 8 0 12 61 4 66 -4 3 -8 -11 -8 -30z"/>
<path d="M7035 7139 c-4 -6 -5 -12 -2 -15 2 -3 7 2 10 11 7 17 1 20 -8 4z"/>
<path d="M7270 7124 c0 -8 5 -12 10 -9 6 4 8 11 5 16 -9 14 -15 11 -15 -7z"/>
<path d="M10970 6918 c-135 -54 -477 -189 -760 -299 -679 -265 -1126 -444
-1156 -464 -15 -9 -52 -72 -95 -158 -131 -260 -254 -469 -421 -709 -79 -113
-98 -148 -83 -148 25 0 773 311 1080 450 211 95 696 335 810 400 401 232 632
444 755 695 47 96 125 308 118 324 -2 4 -113 -37 -248 -91z"/>
<path d="M1600 6998 c0 -29 77 -235 120 -323 123 -251 354 -463 755 -695 114
-65 599 -305 810 -400 307 -139 1055 -450 1080 -450 15 0 -4 35 -83 148 -167
240 -290 449 -421 709 -43 86 -80 149 -95 158 -30 20 -450 189 -1096 440 -272
106 -624 245 -782 308 -159 63 -288 110 -288 105z"/>
<path d="M1911 2549 c-134 -26 -201 -122 -201 -289 0 -142 40 -219 137 -267
l58 -28 292 -5 c275 -5 293 -6 319 -26 53 -39 69 -71 69 -134 0 -66 -18 -99
-75 -137 -33 -23 -37 -23 -374 -23 l-342 0 -32 -65 c-18 -36 -32 -68 -32 -70
0 -3 174 -5 388 -5 419 0 468 5 541 53 26 18 48 45 68 84 25 53 28 68 28 163
0 95 -3 110 -28 163 -20 39 -42 66 -68 84 -68 45 -130 53 -410 53 -250 0 -257
1 -290 23 -106 71 -106 203 0 274 34 23 37 23 365 23 l332 0 32 65 c18 36 32
68 32 70 0 9 -763 3 -809 -6z"/>
<path d="M2900 2555 c0 -2 14 -34 32 -70 l32 -65 193 0 193 0 0 -460 0 -460
90 0 90 0 0 460 0 460 193 0 193 0 32 65 c18 36 32 68 32 70 0 3 -243 5 -540
5 -297 0 -540 -2 -540 -5z"/>
<path d="M4190 2038 c-134 -288 -245 -526 -247 -530 -2 -4 43 10 100 30 l104
36 39 88 39 88 293 0 293 0 42 -88 41 -88 103 -36 103 -36 -13 26 c-8 15 -119
253 -247 530 l-234 502 -86 0 -86 0 -244 -522z m446 94 l110 -237 -113 -3
c-62 -1 -164 -1 -226 0 l-113 3 110 237 c61 131 113 238 116 238 3 -1 55 -107
116 -238z"/>
<path d="M5290 2036 c0 -289 3 -526 8 -526 4 0 42 14 85 31 l77 31 0 194 0
194 158 -1 157 0 160 -194 160 -193 117 -31 c65 -17 122 -31 128 -31 6 0 -73
100 -175 222 l-186 223 78 11 c156 22 220 82 243 228 18 113 -12 238 -72 293
-13 12 -46 32 -73 45 -49 23 -57 23 -457 26 l-408 3 0 -525z m759 353 c58 -33
76 -65 76 -134 0 -69 -18 -101 -76 -134 -35 -20 -52 -21 -313 -21 l-276 0 0
155 0 155 276 0 c261 0 278 -1 313 -21z"/>
<path d="M6570 2035 c0 -289 3 -525 8 -525 4 0 42 14 85 31 l77 31 0 194 0
194 315 0 315 0 0 70 0 70 -315 0 -315 0 0 160 0 160 370 0 370 0 35 70 35 70
-490 0 -490 0 0 -525z"/>
<path d="M8860 2030 l0 -530 500 0 500 0 -35 70 -35 70 -380 0 -380 0 0 160 0
160 315 0 315 0 0 70 0 70 -315 0 -315 0 0 160 0 160 370 0 370 0 35 70 35 70
-490 0 -490 0 0 -530z"/>
<path d="M7730 2025 l0 -525 470 0 c259 0 470 2 470 5 0 2 -14 34 -32 70 l-32
65 -353 0 -353 0 0 424 0 424 -77 31 c-43 17 -81 31 -85 31 -5 0 -8 -236 -8
-525z"/>
<path d="M10026 2538 c5 -7 102 -124 216 -260 l209 -248 -216 -256 c-118 -141
-214 -259 -211 -261 2 -3 58 10 124 27 l121 32 137 164 c76 90 141 164 145
164 4 0 69 -74 144 -164 l138 -164 119 -31 c66 -18 122 -30 125 -28 2 3 -91
118 -206 257 -116 138 -211 255 -211 260 0 5 95 122 211 260 115 139 208 254
206 257 -3 2 -59 -10 -125 -28 l-119 -31 -138 -164 c-75 -90 -140 -164 -144
-164 -5 0 -69 74 -144 164 l-136 163 -119 32 c-134 35 -136 35 -126 19z"/>
</g>
</svg>
